PathFileType	3	(X/Y/Z)	RCH0000002 BBF 12.c3d
DataRate	CameraRate	NumFrames	NumMarkers	Units	OrigDataRate	OrigDataStartFrame	OrigNumFrames
100.0	100.0	5	23	mm	100.0	312	406
Frame#	Time	T10			RPSI			LPAT			LANK			LMED			LTOE			RPAT			RKNE			RANK			RMED			RTOE			LKNE			RHEE			RASI			MAN			LHEE			LASI			T2			LPSI			RTHI			LTHI			RTIB			LTIB			
		X1	Y1	Z1	X2	Y2	Z2	X3	Y3	Z3	X4	Y4	Z4	X5	Y5	Z5	X6	Y6	Z6	X7	Y7	Z7	X8	Y8	Z8	X9	Y9	Z9	X10	Y10	Z10	X11	Y11	Z11	X12	Y12	Z12	X13	Y13	Z13	X14	Y14	Z14	X15	Y15	Z15	X16	Y16	Z16	X17	Y17	Z17	X18	Y18	Z18	X19	Y19	Z19	X20	Y20	Z20	X21	Y21	Z21	X22	Y22	Z22	X23	Y23	Z23	

312	3.110	-167.14608	-112.66790	776.38529	-179.93138	-158.20913	690.00237	22.60299	-123.85111	388.16938	-34.13938	-40.89564	68.59893	-42.14879	-111.32554	81.91894	10.78488	-82.19839	67.20329	-138.45482	-196.85544	345.66377	-198.54064	-245.06285	335.29242	-356.05377	-254.16338	103.92528	-360.45438	-187.60908	123.89489	-328.45024	-212.38786	71.50068	0.09260	-60.98477	337.76627	-379.46654	-226.92354	157.30838	-77.81146	-232.23265	649.59093	-48.77871	-73.61193	941.86588	-80.63797	-76.66363	94.45248	-56.30397	-58.19189	627.74023	-181.94436	-100.73080	964.26254	-174.35515	-87.87596	677.53631	-156.26506	-310.96237	441.17979	-34.11696	16.62339	453.19089	-268.73402	-316.47001	239.55133	-3.62703	9.24454	228.15370	
313	3.120	-156.44544	-113.96113	775.91292	-168.96268	-160.02784	689.55631	27.27716	-121.69117	386.69363	-33.74185	-39.21963	67.69144	-42.20531	-109.56890	81.63199	10.83248	-80.98753	66.09227	-122.82832	-196.52368	342.88439	-183.00164	-244.68516	332.58779	-345.74495	-255.40055	105.55064	-350.17157	-188.87741	125.67350	-320.71214	-213.30153	71.51295	4.16865	-59.01092	336.84349	-367.10831	-228.32692	159.84775	-65.52774	-231.00842	647.64581	-40.20345	-70.74227	941.96991	-80.11882	-74.47108	94.37606	-47.77160	-56.42652	628.51306	-173.39820	-98.78010	963.46600	-164.92243	-89.46144	678.38643	-141.49752	-310.27732	438.98117	-28.59985	18.39225	452.85915	-254.12017	-316.80328	238.73480	-0.63009	11.02432	226.85612	
314	3.130	-146.03001	-115.22431	775.86261	-158.27376	-161.72167	689.44024	31.63247	-119.05744	385.79698	-33.40609	-37.42891	67.29021	-42.24949	-107.70354	81.88117	10.80652	-79.63731	65.48368	-106.79035	-195.81474	340.53341	-166.88359	-244.08915	330.12951	-334.33198	-256.67986	107.32197	-338.85033	-190.15575	127.47031	-311.83212	-214.34669	71.73257	7.81054	-56.66427	336.47546	-353.74687	-229.68844	162.37359	-53.43567	-229.43417	646.03220	-31.77110	-68.07238	942.42701	-79.65006	-72.17069	94.80945	-39.75327	-54.35088	629.66404	-164.96502	-97.16280	963.07006	-155.88827	-90.94997	679.58658	-126.21012	-309.32141	437.07886	-23.70932	20.50464	453.00992	-238.65955	-317.00154	238.13796	2.02866	13.10550	226.03579	
315	3.140	-135.95006	-116.39390	776.23479	-147.89886	-163.21295	689.65636	35.62416	-116.05107	385.34927	-33.10285	-35.65534	67.26714	-42.21054	-105.85775	82.52671	10.78239	-78.24121	65.27456	-90.44605	-194.70863	338.72202	-150.29094	-243.25792	328.02622	-321.82594	-257.99619	109.24037	-326.49913	-191.43130	129.26653	-301.70770	-215.53766	72.19182	10.94555	-54.02103	336.52789	-339.47487	-230.98268	164.86465	-41.60922	-227.51418	644.80804	-23.49691	-65.63599	943.25052	-79.20420	-69.92790	95.59439	-32.23852	-51.99459	631.14709	-156.66088	-95.88615	963.09056	-147.24944	-92.27164	681.09795	-110.51990	-308.08567	435.57704	-19.45406	22.88838	453.53257	-222.45211	-317.04790	237.84716	4.26266	15.39221	225.57363	
316	3.150	-126.24346	-117.41011	777.01309	-137.86240	-164.43519	690.19412	39.21503	-112.79371	385.22374	-32.84173	-34.02946	67.50284	-42.05571	-104.15845	83.43368	10.79778	-76.89191	65.36193	-73.88391	-193.20155	337.53727	-133.32054	-242.18193	326.36944	-308.24605	-259.34598	111.29405	-313.13828	-192.69662	131.04035	-290.24863	-216.88053	72.91036	13.52421	-51.17619	336.86970	-324.39180	-232.19610	167.29660	-30.11121	-225.26354	644.01404	-15.38834	-63.45816	944.44073	-78.78590	-67.90986	96.58638	-25.20287	-49.39413	632.90726	-148.49700	-94.93927	963.52756	-138.99211	-93.36604	682.87276	-94.55031	-306.56959	434.56589	-15.81805	25.46155	454.31198	-205.59008	-316.93294	237.93302	5.98175	17.77608	225.35799	
